# AST/ASF file generated using VICON BodyLanguage
# -----------------------------------------------
:version 1.10
:name VICON
:units
  mass 1.0
  length 0.45
  angle deg
:documentation
   .ast/.asf automatically generated from VICON data using
   VICON BodyBuilder and BodyLanguage model FoxedUp or BRILLIANT.MOD
:root
   order TX TY TZ RX RY RZ
   axis XYZ
   position 0 0 0  
   orientation 0 0 0 
:bonedata
  begin
     id 1 
     name lhipjoint
     direction 0.606768 -0.715223 0.346827 
     length 2.41543 
     axis 0 0 0  XYZ
  end
  begin
     id 2 
     name lfemur
     direction 0.34202 -0.939693 0  
     length 7.2778  
     axis 0 0 20  XYZ
    dof rx ry rz
    limits (-160.0 20.0)
           (-70.0 70.0)
           (-60.0 70.0)
  end
  begin
     id 3 
     name ltibia
     direction 0.34202 -0.939693 0   
     length 7.61811   
     axis 0 0 20   XYZ
    dof rx
    limits (-10.0 170.0)
  end
  begin
     id 4 
     name lfoot
     direction 0.0823924 -0.226371 0.97055   
     length 2.33618   
     axis -90 7.62852e-016 20   XYZ
    dof rx rz
    limits (-45.0 90.0)
           (-70.0 20.0)
  end
  begin
     id 5 
     name ltoes
     direction 1.53554e-011 -4.21934e-011 1   
     length 1.17015   
     axis -90 7.62852e-016 20   XYZ
    dof rx
    limits (-90.0 20.0)
  end
  begin
     id 6 
     name rhipjoint
     direction -0.6077 -0.714582 0.346516   
     length 2.4176  
     axis 0 0 0  XYZ 
  end
  begin
     id 7 
     name rfemur
     direction -0.34202 -0.939693 0   
     length 7.28127   
     axis 0 0 -20   XYZ
    dof rx ry rz
    limits (-160.0 20.0)
           (-70.0 70.0)
           (-70.0 60.0)
  end
  begin
     id 8 
     name rtibia
     direction -0.34202 -0.939693 0   
     length 7.77648   
     axis 0 0 -20   XYZ
    dof rx
    limits (-10.0 170.0)
 end
 begin
     id 9 
     name rfoot
     direction -0.0809463 -0.222398 0.97159   
     length 2.37533  
     axis -90 -7.62852e-016 -20   XYZ
    dof rx rz
    limits (-45.0 90.0)
           (-20.0 70.0)
  end
  begin
     id 10 
     name rtoes
     direction -1.53568e-011 -4.21714e-011 1   
     length 1.18972   
     axis -90 -7.62852e-016 -20   XYZ
    dof rx
    limits (-90.0 20.0)
  end
  begin
     id 11 
     name lowerback
     direction 0.010968 0.991932 -0.126297   
     length 2.21698   
     axis 0 0 0   XYZ
    dof rx ry rz
    limits (-20.0 45.0)
           (-30.0 30.0)
           (-30.0 30.0)
  end
  begin
     id 12 
     name upperback
     direction 0.0167007 0.997503 -0.0686276   
     length 2.22371   
     axis 0 0 0   XYZ
    dof rx ry rz
    limits (-20.0 45.0)
           (-30.0 30.0)
           (-30.0 30.0)
  end
  begin
     id 13 
     name thorax
     direction 0.0111721 0.999885 -0.0102878   
     length 2.25242   
     axis 0 0 0   XYZ
    dof rx ry rz
    limits (-20.0 45.0)
           (-30.0 30.0)
           (-30.0 30.0)
  end
  begin
     id 14 
     name lowerneck
     direction -0.0120265 0.990428 0.137508   
     length 1.57674   
     axis 0 0 0   XYZ
    dof rx ry rz
    limits (-20.0 45.0)
           (-30.0 30.0)
           (-30.0 30.0)
  end
  begin
     id 15 
     name upperneck
     direction 0.0175669 0.998907 0.0433089   
     length 1.5618   
     axis 0 0 0   XYZ
    dof rx ry rz
    limits (-20.0 45.0)
           (-30.0 30.0)
           (-30.0 30.0)
  end
  begin
     id 16
     name head
     direction 0.00754609 0.99997 0.00185367  
     length 1.60579  
     axis 0 0 0   XYZ
    dof rx ry rz
    limits (-20.0 45.0)
           (-30.0 30.0)
           (-30.0 30.0)
  end
  begin
     id 17 
     name lclavicle
     direction 0.885866 0.429166 -0.176231  
     length 3.44967  
     axis 0 0 0   XYZ
    dof ry rz
    limits (-20.0 10.0)
           (0.0 20.0)
  end
  begin
     id 18 
     name lhumerus
     direction 1 -4.48973e-011 -1.90255e-027   
     length 5.20607   
     axis 180 -30 -90   XYZ
    dof rx ry rz
    limits (-60.0 90.0)
           (-90.0 90.0)
           (-90.0 90.0)
  end
  begin
     id 19
     name lradius
     direction 1 -4.48956e-011 9.87925e-027   
     length 3.39961   
     axis 180 -30 -90   XYZ
    dof rx
    limits (-10.0 170.0)
  end
  begin
     id 20
     name lwrist
     direction 1 -4.48985e-011 1.73247e-026   
     length 1.6998   
     axis -9.60847e-015 90 90   XYZ
    dof ry
    limits (-180.0 0.0)
 end
  begin
     id 21 
     name lhand
     direction 1 -4.48798e-011 3.46119e-026   
     length 0.519693   
     axis -2.21073e-014 90 90   XYZ
    dof rx rz
    limits (-90.0 90.0)
           (-45.0 45.0)
  end
  begin
     id 22 
     name lfingers
     direction 1 -4.48938e-011 6.92797e-026   
     length 0.41899   
     axis -4.42155e-014 90 90   XYZ
    dof rx
    limits (0.0 90.0)
  end
  begin
     id 23
     name lthumb
     direction 0.707107 -6.34952e-011 0.707107   
     length 0.601588   
     axis -90 45 6.0103e-014   XYZ
    dof rx rz
    limits (-45.0 45.0)
           (-45.0 45.0)
  end
  begin
     id 24 
     name rclavicle
     direction -0.866736 0.456792 -0.200276   
     length 3.45032  
     axis 0 0 0   XYZ 
    dof ry rz
    limits (-10.0 20.0)
           (-20.0 0.0)
  end
  begin
     id 25 
     name rhumerus
     direction -1 -4.4897e-011 8.65094e-028  
     length 5.32214   
     axis 180 30 90   XYZ
    dof rx ry rz
    limits (-90.0 60.0)
           (-90.0 90.0)
           (-90.0 90.0)
  end
  begin
     id 26 
     name rradius
     direction -1 -4.48987e-011 1.08427e-026   
     length 3.51208   
     axis 180 30 90   XYZ
    dof rx
    limits (-10.0 170.0)
  end
  begin
     id 27 
     name rwrist
     direction -1 -4.48961e-011 1.73222e-026   
     length 1.75604   
     axis -9.60847e-015 -90 -90   XYZ
    dof ry
    limits (-180.0 0.0)
  end
  begin
     id 28
     name rhand
     direction -1 -4.48895e-011 3.46314e-026   
     length 0.586681   
     axis -2.21073e-014 -90 -90   XYZ
    dof rx rz
    limits (-90.0 90.0)
           (-45.0 45.0)
  end
  begin
     id 29
     name rfingers
     direction -1 -4.48968e-011 6.92916e-026   
     length 0.472997   
     axis -4.42155e-014 -90 -90   XYZ
    dof rx
    limits (0.0 90.0)
  end
  begin
     id 30
     name rthumb
     direction -0.707107 -6.34848e-011 0.707107   
     length 0.679133   
     axis -90 -45 -6.0103e-014   XYZ
    dof rx rz
    limits (-45.0 45.0)
           (-45.0 45.0)
  end
:hierarchy
  begin
    root lhipjoint rhipjoint lowerback
    lhipjoint lfemur
    lfemur ltibia
    ltibia lfoot
    lfoot ltoes
    rhipjoint rfemur
    rfemur rtibia
    rtibia rfoot
    rfoot rtoes
    lowerback upperback
    upperback thorax
    thorax lowerneck lclavicle rclavicle
    lowerneck upperneck
    upperneck head
    lclavicle lhumerus
    lhumerus lradius
    lradius lwrist
    lwrist lhand lthumb
    lhand lfingers
    rclavicle rhumerus
    rhumerus rradius
    rradius rwrist
    rwrist rhand rthumb
    rhand rfingers
  end

#!OML:ASF H:\Dans Jumps\Project 1\Capture day 1\Session 1\subject.ASF
:FULLY-SPECIFIED
:DEGREES
67
root 0.34362 17.6671 -13.5088 5.56078 -0.763136 -1.05074
lowerback -5.79898 -0.512523 -0.457832
upperback 2.36336 -0.715952 1.25684
thorax 5.73388 -0.395848 1.48792
lowerneck -13.707 -0.108604 -2.54674
upperneck 12.3656 -0.474161 5.5511
head 6.01563 0.0902107 2.13902
rclavicle -5.31749e-015 -7.15625e-015
rhumerus -22.851 -11.9435 -84.3349
rradius 24.7156
rwrist 32.916
rhand -18.2938 -26.7762
rfingers 7.12502
rthumb 7.98674 -56.6053
lclavicle -5.31749e-015 -7.15625e-015
lhumerus -22.4526 -7.31227 94.5372
lradius 19.6897
lwrist 2.41893
lhand -24.6711 -3.31688
lfingers 7.12502
lthumb 1.82922 26.655
rfemur -8.52124 -4.33247 19.0136
rtibia 18.1371
rfoot -13.6274 -5.98049
rtoes 13.9801
lfemur -5.21669 7.23925 -17.8693
ltibia 12.1781
lfoot -9.34517 7.25991
ltoes 5.14987
68
root 0.347855 17.6671 -13.5076 5.57274 -0.755746 -1.04237
lowerback -5.80081 -0.518031 -0.448544
upperback 2.36298 -0.723794 1.25179
thorax 5.73457 -0.399275 1.47659
lowerneck -13.7066 -0.109907 -2.5441
upperneck 12.3718 -0.477635 5.55707
head 6.0177 0.0891773 2.14024
rclavicle -5.71506e-016 7.95139e-015
rhumerus -22.8767 -12.2178 -84.152
rradius 24.5963
rwrist 33.1189
rhand -18.2837 -26.8295
rfingers 7.12502
rthumb 7.9965 -56.6582
lclavicle -5.71506e-016 7.95139e-015
lhumerus -22.4747 -7.57208 94.6484
lradius 19.8357
lwrist 2.6346
lhand -24.7158 -3.3874
lfingers 7.12502
lthumb 1.78609 26.5849
rfemur -8.52933 -4.33435 18.9893
rtibia 18.1385
rfoot -13.6304 -5.98809
rtoes 13.9646
lfemur -5.22788 7.24424 -17.8946
ltibia 12.1795
lfoot -9.35646 7.24154
ltoes 5.17917
69
root 0.352017 17.6671 -13.5064 5.58392 -0.748173 -1.02957
lowerback -5.80195 -0.523844 -0.442739
upperback 2.36462 -0.731695 1.24522
thorax 5.737 -0.402847 1.46562
lowerneck -13.7068 -0.112627 -2.54317
upperneck 12.3778 -0.482695 5.56322
head 6.01986 0.0873128 2.14166
rclavicle -8.4235e-015 4.96962e-015
rhumerus -22.9027 -12.4867 -83.9714
rradius 24.4847
rwrist 33.3165
rhand -18.277 -26.9018
rfingers 7.12502
rthumb 8.00301 -56.7303
lclavicle -8.4235e-015 4.96962e-015
lhumerus -22.4833 -7.81316 94.7432
lradius 19.9688
lwrist 2.84624
lhand -24.8153 -3.50956
lfingers 7.12502
lthumb 1.68999 26.4635
rfemur -8.53825 -4.34302 18.9598
rtibia 18.1426
rfoot -13.6343 -5.98893
rtoes 13.9501
lfemur -5.23665 7.24965 -17.925
ltibia 12.177
lfoot -9.36414 7.22392
ltoes 5.18505
70
root 0.355995 17.6671 -13.5055 5.59565 -0.739153 -1.01697
lowerback -5.80178 -0.529997 -0.437762
upperback 2.36732 -0.740032 1.23943
thorax 5.73983 -0.406688 1.4559
lowerneck -13.7099 -0.116686 -2.54195
upperneck 12.3859 -0.489121 5.56566
head 6.02324 0.0845679 2.14176
rclavicle -9.24349e-015 2.78299e-015
rhumerus -22.9257 -12.7555 -83.792
rradius 24.3748
rwrist 33.5106
rhand -18.2856 -26.9568
rfingers 7.12502
rthumb 7.99465 -56.7856
lclavicle -9.24349e-015 2.78299e-015
lhumerus -22.4792 -8.03416 94.8225
lradius 20.0894
lwrist 3.04974
lhand -24.9044 -3.63095
lfingers 7.12502
lthumb 1.60393 26.3428
rfemur -8.54859 -4.35121 18.9312
rtibia 18.1479
rfoot -13.6389 -5.99033
rtoes 13.9435
lfemur -5.24611 7.25518 -17.9546
ltibia 12.1736
lfoot -9.37028 7.20528
ltoes 5.18689
71
root 0.35978 17.667 -13.5048 5.60593 -0.730221 -1.00401
lowerback -5.79778 -0.535822 -0.434673
upperback 2.37046 -0.74782 1.23453
thorax 5.74096 -0.410341 1.44824
lowerneck -13.713 -0.121959 -2.5436
upperneck 12.3972 -0.496682 5.56775
head 6.02767 0.0811373 2.14214
rclavicle -7.8023e-015 1.39149e-015
rhumerus -22.9503 -13.0208 -83.6135
rradius 24.2704
rwrist 33.6992
rhand -18.3078 -27.0047
rfingers 7.12502
rthumb 7.97328 -56.8344
lclavicle -7.8023e-015 1.39149e-015
lhumerus -22.4648 -8.23083 94.8859
lradius 20.1974
lwrist 3.232
lhand -24.9642 -3.72326
lfingers 7.12502
lthumb 1.54612 26.2509
rfemur -8.55787 -4.35729 18.903
rtibia 18.153
rfoot -13.6433 -5.99296
rtoes 13.9441
lfemur -5.25492 7.25977 -17.984
ltibia 12.1712
lfoot -9.3767 7.18861
ltoes 5.18344
72
root 0.363241 17.6669 -13.5043 5.61346 -0.7194 -0.99477
lowerback -5.78747 -0.543387 -0.431727
upperback 2.37407 -0.758106 1.23313
thorax 5.7391 -0.415296 1.44409
lowerneck -13.7129 -0.127137 -2.55139
upperneck 12.4101 -0.503067 5.57031
head 6.03203 0.0779923 2.14379
rclavicle 2.06239e-015 -3.57812e-015
rhumerus -22.9735 -13.2791 -83.4369
rradius 24.1671
rwrist 33.8827
rhand -18.3316 -27.0484
rfingers 7.12502
rthumb 7.95034 -56.8789
lclavicle 2.06239e-015 -3.57812e-015
lhumerus -22.4459 -8.39658 94.932
lradius 20.3033
lwrist 3.38825
lhand -24.9647 -3.7589
lfingers 7.12502
lthumb 1.54562 26.2153
rfemur -8.56328 -4.352 18.8805
rtibia 18.1562
rfoot -13.6473 -6.00736
rtoes 13.9481
lfemur -5.26316 7.26137 -18.0071
ltibia 12.1714
lfoot -9.38353 7.17342
ltoes 5.19183
73
root 0.366428 17.6667 -13.5041 5.6187 -0.706206 -0.987204
lowerback -5.77318 -0.551906 -0.429916
upperback 2.38002 -0.769714 1.23406
thorax 5.73751 -0.421007 1.44288
lowerneck -13.7117 -0.133642 -2.56316
upperneck 12.4232 -0.510083 5.57035
head 6.0363 0.0741352 2.14523
rclavicle 1.04362e-014 -3.77691e-015
rhumerus -22.9922 -13.5332 -83.263
rradius 24.064
rwrist 34.0645
rhand -18.362 -27.0753
rfingers 7.12502
rthumb 7.92097 -56.9069
lclavicle 1.04362e-014 -3.77691e-015
lhumerus -22.416 -8.53586 94.9611
lradius 20.4011
lwrist 3.51691
lhand -24.9173 -3.73721
lfingers 7.12502
lthumb 1.5914 26.2366
rfemur -8.56595 -4.34083 18.8618
rtibia 18.1576
rfoot -13.6493 -6.0307
rtoes 13.9461
lfemur -5.27179 7.26087 -18.0266
ltibia 12.1746
lfoot -9.39078 7.15752
ltoes 5.21072
74
root 0.369346 17.6666 -13.5042 5.622 -0.690854 -0.981157
lowerback -5.75261 -0.56176 -0.429536
upperback 2.38546 -0.783094 1.23724
thorax 5.73191 -0.427675 1.44468
lowerneck -13.7051 -0.141024 -2.58403
upperneck 12.4391 -0.517255 5.57443
head 6.04053 0.0700358 2.14944
rclavicle -4.05024e-015 4.17448e-015
rhumerus -23.0109 -13.785 -83.0909
rradius 23.9603
rwrist 34.2482
rhand -18.3836 -27.1007
rfingers 7.12502
rthumb 7.90013 -56.933
lclavicle -4.05024e-015 4.17448e-015
lhumerus -22.3809 -8.6445 94.9729
lradius 20.4933
lwrist 3.61958
lhand -24.8387 -3.68668
lfingers 7.12502
lthumb 1.66737 26.2865
rfemur -8.56618 -4.32224 18.8462
rtibia 18.1573
rfoot -13.6499 -6.06274
rtoes 13.9418
lfemur -5.28151 7.25608 -18.0427
ltibia 12.1809
lfoot -9.39873 7.14285
ltoes 5.24064
75
root 0.372077 17.6664 -13.5046 5.62358 -0.674249 -0.977398
lowerback -5.72792 -0.572775 -0.428971
upperback 2.39163 -0.798184 1.2431
thorax 5.72481 -0.435235 1.44903
lowerneck -13.6954 -0.148969 -2.61304
upperneck 12.4588 -0.523895 5.57946
head 6.04544 0.065869 2.15536
rclavicle 3.67752e-015 9.14409e-015
rhumerus -23.0277 -14.0278 -82.9223
rradius 23.8576
rwrist 34.4262
rhand -18.4032 -27.1205
rfingers 7.12502
rthumb 7.88122 -56.9536
lclavicle 3.67752e-015 9.14409e-015
lhumerus -22.3371 -8.71937 94.9679
lradius 20.575
lwrist 3.69508
lhand -24.7579 -3.60805
lfingers 7.12502
lthumb 1.74543 26.3646
rfemur -8.56517 -4.29967 18.8342
rtibia 18.1563
rfoot -13.6488 -6.09991
rtoes 13.9314
lfemur -5.29209 7.24976 -18.0551
ltibia 12.1896
lfoot -9.40559 7.1282
ltoes 5.27355
76
root 0.374654 17.6662 -13.5053 5.62671 -0.658234 -0.973051
lowerback -5.7009 -0.583609 -0.429791
upperback 2.39642 -0.812938 1.24967
thorax 5.71495 -0.442677 1.45495
lowerneck -13.6866 -0.156548 -2.64403
upperneck 12.4882 -0.529548 5.58134
head 6.0535 0.0619331 2.16079
rclavicle 2.88238e-015 -2.18663e-015
rhumerus -23.0451 -14.2668 -82.7575
rradius 23.7571
rwrist 34.5992
rhand -18.4228 -27.1299
rfingers 7.12502
rthumb 7.8623 -56.9637
lclavicle 2.88238e-015 -2.18663e-015
lhumerus -22.2842 -8.7707 94.9481
lradius 20.6395
lwrist 3.74997
lhand -24.7277 -3.57392
lfingers 7.12502
lthumb 1.7746 26.3984
rfemur -8.56771 -4.27394 18.8224
rtibia 18.156
rfoot -13.6469 -6.14002
rtoes 13.9169
lfemur -5.30686 7.24213 -18.068
ltibia 12.2002
lfoot -9.41014 7.11574
ltoes 5.2989
77
root 0.377133 17.6659 -13.5062 5.63211 -0.644988 -0.968369
lowerback -5.67423 -0.593798 -0.431236
upperback 2.40054 -0.826818 1.25703
thorax 5.7046 -0.449722 1.46214
lowerneck -13.6786 -0.163457 -2.67583
upperneck 12.5272 -0.533744 5.57815
head 6.06467 0.0583536 2.16497
rclavicle 1.09332e-015 -5.1684e-015
rhumerus -23.0638 -14.4916 -82.5987
rradius 23.6636
rwrist 34.7593
rhand -18.4381 -27.1557
rfingers 7.12502
rthumb 7.84748 -56.9901
lclavicle 1.09332e-015 -5.1684e-015
lhumerus -22.2212 -8.8023 94.9154
lradius 20.6865
lwrist 3.7925
lhand -24.7506 -3.57349
lfingers 7.12502
lthumb 1.75245 26.3991
rfemur -8.57544 -4.24633 18.8104
rtibia 18.1576
rfoot -13.6446 -6.17879
rtoes 13.8995
lfemur -5.32607 7.23417 -18.0819
ltibia 12.2125
lfoot -9.41161 7.10735
ltoes 5.30958
78
root 0.379523 17.6657 -13.5074 5.64011 -0.633797 -0.961971
lowerback -5.64968 -0.604281 -0.434435
upperback 2.40533 -0.840982 1.26478
thorax 5.69622 -0.456993 1.4707
lowerneck -13.6771 -0.166919 -2.6978
upperneck 12.5799 -0.533273 5.55904
head 6.08102 0.0564457 2.16304
rclavicle 3.85145e-015 -7.7526e-015
rhumerus -23.0803 -14.7011 -82.4476
rradius 23.5774
rwrist 34.9044
rhand -18.4472 -27.1763
rfingers 7.12502
rthumb 7.83871 -57.011
lclavicle 3.85145e-015 -7.7526e-015
lhumerus -22.1514 -8.81956 94.8703
lradius 20.7259
lwrist 3.82858
lhand -24.7737 -3.55088
lfingers 7.12502
lthumb 1.73009 26.4219
rfemur -8.58898 -4.21864 18.7965
rtibia 18.162
rfoot -13.6429 -6.21498
rtoes 13.8848
lfemur -5.34953 7.22699 -18.0983
ltibia 12.2258
lfoot -9.41226 7.10071
ltoes 5.31274
79
root 0.381866 17.6654 -13.5089 5.65116 -0.623553 -0.953508
lowerback -5.62784 -0.614899 -0.439217
upperback 2.4109 -0.855211 1.27247
thorax 5.69022 -0.464366 1.48004
lowerneck -13.685 -0.166997 -2.7076
upperneck 12.6506 -0.528507 5.52216
head 6.10441 0.0560614 2.15404
rclavicle -3.95085e-015 7.7526e-015
rhumerus -23.0975 -14.8867 -82.3063
rradius 23.5045
rwrist 35.0271
rhand -18.4453 -27.2062
rfingers 7.12502
rthumb 7.84057 -57.0408
lclavicle -3.95085e-015 7.7526e-015
lhumerus -22.0749 -8.8235 94.8132
lradius 20.7586
lwrist 3.85753
lhand -24.7985 -3.52327
lfingers 7.12502
lthumb 1.70614 26.4497
rfemur -8.60886 -4.19838 18.7804
rtibia 18.1694
rfoot -13.6413 -6.24331
rtoes 13.8708
lfemur -5.37812 7.21985 -18.1178
ltibia 12.2409
lfoot -9.41372 7.09525
ltoes 5.31344
